<?xml version="1.0" encoding="utf-8"?>
<!-- Generator: Adobe Illustrator 22.0.0, SVG Export Plug-In . SVG Version: 6.00 Build 0)  -->
<svg version="1.1" id="Layer_1" xmlns="http://www.w3.org/2000/svg" xmlns:xlink="http://www.w3.org/1999/xlink" x="0px" y="0px"
	 viewBox="0 0 176.6 176.6" style="enable-background:new 0 0 176.6 176.6;" xml:space="preserve">
<style type="text/css">
	.st0{fill:#0062FF;}
	.st1{fill:#FFFFFF;}
</style>
<g>
	<g>
		<path class="st0" d="M-0.3,177.3V-0.3h51.2l-2,1.7c-1,0.9-2.1,1.8-3.2,2.6c-5.2,4.1-9.7,9.2-13.4,15.1l-0.9,1.4
			c-1.7,2.6-3.4,5.4-4.6,8.3c-1.7,4.2-3.2,8.7-4.9,14.8c-2.4,8.7-3.5,18.2-3.4,28.3c0.1,9.8,1.4,19.3,3.9,28.4
			c2.5,8.9,6.2,17.2,11.1,24.5c1.8,2.7,1.3,5.6,0.6,8.4c-1,4.3-2.8,7.7-5.6,10.5c-0.3,0.3-0.4,0.7-0.5,1.1c0,0.1-0.1,0.2-0.1,0.4
			c0.1,0.1,0.2,0.1,0.3,0.2c0.4,0.2,0.8,0.4,1.1,0.4c1.2,0.1,2.4,0.2,3.6,0.2c0,0,0,0,0,0c5.1,0,10.4-1.1,16.4-3.5
			c0.5-0.2,1-0.3,1.4-0.3c0.6,0,1.2,0.2,1.8,0.6c9.1,5.7,19.6,9.6,32.2,12c7.4,1.4,15,2.1,22.4,2.1c1.7,0,3.5,0,5.2-0.1
			c19.9-0.9,36.3-5.5,50.4-14c5-3,9.7-6.9,14-11.6l0.5-0.5v46.7H-0.3z"/>
		<path class="st0" d="M50.1,0c-1.5,1.3-3,2.6-4.6,3.8c-5.3,4.3-9.8,9.4-13.4,15.2c-2,3.1-4.1,6.3-5.5,9.7c-2,4.8-3.5,9.8-4.9,14.9
			c-2.5,9.3-3.5,18.8-3.5,28.3c0.1,9.6,1.3,19.1,3.9,28.4c2.4,8.8,6.1,17,11.1,24.5c1.7,2.6,1.2,5.4,0.6,8.2
			c-0.9,3.9-2.6,7.5-5.5,10.4c-0.4,0.4-0.6,1.2-0.8,1.8c0.6,0.2,1.2,0.6,1.8,0.7c1.2,0.1,2.4,0.2,3.6,0.2c5.7,0,11.1-1.4,16.5-3.5
			c0.5-0.2,0.9-0.3,1.3-0.3c0.6,0,1.1,0.2,1.7,0.6c10,6.2,20.9,9.8,32.3,12c7.4,1.4,14.9,2.1,22.4,2.1c1.7,0,3.5,0,5.2-0.1
			c17.9-0.8,35-4.6,50.5-14c5.3-3.2,9.9-7.1,14.1-11.6c0,15.2,0,30.4,0,45.6c-59,0-118,0-177,0C0,118,0,59,0,0C16.7,0,33.4,0,50.1,0
			 M51.7-0.6h-1.6L0-0.6h-0.6V0v177v0.6H0h177h0.6V177v-45.6v-1.5l-1,1.1c-4.2,4.6-8.9,8.5-13.9,11.5c-14,8.5-30.4,13-50.2,13.9
			c-1.7,0.1-3.5,0.1-5.2,0.1c-7.4,0-14.9-0.7-22.3-2.1c-12.5-2.4-23-6.3-32.1-11.9c-0.7-0.4-1.3-0.6-2-0.6c-0.5,0-1,0.1-1.5,0.3
			c-5.9,2.3-11.2,3.5-16.2,3.5c-1.2,0-2.4-0.1-3.5-0.2c-0.3,0-0.7-0.2-1-0.4c0,0-0.1,0-0.1,0c0,0,0-0.1,0-0.1c0.1-0.4,0.3-0.8,0.5-1
			c2.8-2.8,4.6-6.3,5.6-10.7c0.7-2.9,1.2-5.9-0.7-8.6c-4.8-7.3-8.5-15.5-11-24.4c-2.5-9-3.8-18.5-3.9-28.3
			c-0.1-10,1.1-19.5,3.4-28.2c1.7-6.1,3.2-10.6,4.8-14.8c1.2-2.9,2.9-5.6,4.6-8.2c0.3-0.5,0.6-0.9,0.9-1.4
			c3.7-5.9,8.2-10.9,13.3-15.1C47,3.4,48,2.5,49.1,1.6c0.5-0.4,1-0.8,1.4-1.2L51.7-0.6L51.7-0.6z M50.1,0.6L50.1,0.6L50.1,0.6
			L50.1,0.6z"/>
	</g>
	<g>
		<path class="st1" d="M107.2,157.4c-7.4,0-15-0.7-22.5-2.1c-12.6-2.4-23.2-6.3-32.4-12.1c-0.6-0.4-1-0.5-1.5-0.5
			c-0.4,0-0.8,0.1-1.2,0.3c-6,2.4-11.4,3.5-16.6,3.5c-1.2,0-2.4-0.1-3.6-0.2c-0.5-0.1-0.9-0.3-1.3-0.5c-0.2-0.1-0.4-0.2-0.5-0.3
			l-0.3-0.1l0.1-0.3c0.1-0.2,0.1-0.4,0.2-0.6c0.2-0.5,0.3-1,0.7-1.3c2.7-2.7,4.4-6.1,5.4-10.2c0.6-2.7,1.1-5.5-0.5-8
			c-4.9-7.3-8.6-15.6-11.1-24.6c-2.5-9.1-3.9-18.7-4-28.5c-0.1-10.1,1.1-19.7,3.5-28.4c1.7-6.1,3.2-10.7,4.9-14.9
			c1.2-2.9,2.9-5.7,4.6-8.4l0.9-1.4c3.7-5.9,8.3-11.1,13.5-15.3c1.1-0.9,2.1-1.7,3.2-2.6L50-0.3h127.3v131.8l-0.1,0.1
			c-4.3,4.7-9,8.6-14.1,11.7c-14.1,8.5-30.7,13.1-50.6,14C110.7,157.4,109,157.4,107.2,157.4C107.2,157.4,107.2,157.4,107.2,157.4z"
			/>
		<path class="st0" d="M177,0c0,43.8,0,87.6,0,131.4c-4.2,4.5-8.8,8.4-14.1,11.6c-15.5,9.4-32.6,13.2-50.5,14
			c-1.7,0.1-3.5,0.1-5.2,0.1c-7.5,0-15-0.7-22.4-2.1c-11.4-2.2-22.4-5.8-32.3-12c-0.6-0.4-1.1-0.6-1.7-0.6c-0.4,0-0.8,0.1-1.3,0.3
			c-5.3,2.1-10.8,3.5-16.5,3.5c-1.2,0-2.4-0.1-3.6-0.2c-0.6-0.1-1.2-0.5-1.8-0.7c0.3-0.6,0.4-1.4,0.8-1.8c2.9-2.9,4.6-6.5,5.5-10.4
			c0.6-2.8,1.1-5.6-0.6-8.2c-5-7.6-8.6-15.8-11.1-24.5c-2.6-9.3-3.9-18.8-3.9-28.4c-0.1-9.6,0.9-19.1,3.5-28.3
			c1.4-5,2.9-10,4.9-14.9c1.4-3.4,3.5-6.5,5.5-9.7c3.6-5.8,8.1-10.9,13.4-15.2c1.6-1.2,3.1-2.5,4.6-3.8C92.4,0,134.7,0,177,0
			 M177.6-0.6H177H50.1h-0.2l-0.2,0.1c-0.5,0.4-1,0.8-1.4,1.2c-1,0.9-2.1,1.8-3.1,2.6c-5.2,4.2-9.8,9.4-13.5,15.3
			c-0.3,0.5-0.6,0.9-0.9,1.4c-1.7,2.7-3.5,5.4-4.7,8.4c-1.7,4.2-3.2,8.8-4.9,14.9c-2.4,8.8-3.6,18.4-3.5,28.5
			c0.1,9.9,1.4,19.5,4,28.6c2.5,9,6.3,17.3,11.2,24.7c1.6,2.4,1.1,5,0.5,7.7c-1,4.1-2.7,7.4-5.3,10.1c-0.4,0.4-0.6,0.9-0.7,1.4
			c-0.1,0.2-0.1,0.4-0.2,0.6l-0.2,0.5l0.5,0.2c0.2,0.1,0.4,0.2,0.5,0.2c0.4,0.2,0.9,0.4,1.4,0.5c1.2,0.1,2.4,0.2,3.6,0.2
			c5.2,0,10.6-1.2,16.7-3.6c0.4-0.2,0.8-0.2,1.1-0.2c0.4,0,0.9,0.1,1.4,0.5c9.2,5.7,19.8,9.7,32.5,12.1c7.5,1.4,15.1,2.1,22.5,2.1
			c1.7,0,3.5,0,5.3-0.1c20-0.9,36.6-5.5,50.8-14.1c5.1-3.1,9.9-7,14.2-11.7l0.2-0.2v-0.2V0V-0.6L177.6-0.6z"/>
	</g>
	<g>
		<g>
			<path class="st0" d="M42.5,101.1c-0.9,0-1.3-0.3-1.5-0.6c-0.3-0.4-0.4-1-0.2-1.7c0.4-1.5,0.8-3,1.7-4.2c3.8-5,6.8-8.8,9.7-12.2
				c2.2-2.6,4.3-5.3,6.4-8c2-2.6,4.1-5.3,6.3-7.9c0.1-0.1,0.2-0.3,0.4-0.6c0,0,0.1-0.1,0.1-0.1l-0.3,0c-0.5,0-0.9-0.1-1.3-0.1
				c0,0-8.3,0-10.2,0c-3.2,0-6.3,0-9.5,0c0,0,0,0,0,0c-0.7,0-1.4-0.1-1.9-0.5c-0.3-0.4-0.4-0.9-0.3-1.7c0.1-1.1,0.1-2.2,0-3.4
				c0-0.6,0.1-1.1,0.4-1.4c0.3-0.3,0.8-0.5,1.5-0.5c4.7,0,9.5,0,14.2,0c5.4,0,10.8,0,16.3,0c0.8,0,1.4,0.2,1.7,0.6
				c0.3,0.3,0.3,0.8,0.1,1.4c-0.1,0.3-0.2,0.7-0.3,1.1c-0.4,1.4-0.7,2.9-1.6,4.1c-5.3,6.9-10.8,13.8-16.1,20.4c-2,2.5-3.9,5-5.9,7.4
				c-0.2,0.2-0.3,0.4-0.5,0.8c0,0.1-0.1,0.2-0.1,0.2l12.7,0c3.3,0,6.6,0,9.8,0c0,0,0,0,0,0c0.9,0,1.4,0.2,1.7,0.5
				c0.3,0.3,0.4,0.8,0.3,1.6c0,0.4,0,0.8,0,1.2c0,0.3,0,0.6,0,0.9c-0.1,1.7-1.1,2.7-2.8,2.7c-5.9,0-11.8,0-17.6,0
				C51.1,101.1,46.8,101.1,42.5,101.1L42.5,101.1z"/>
			<path class="st0" d="M74.1,58.6c1.2,0,1.9,0.5,1.5,1.6c-0.5,1.7-0.8,3.7-1.9,5c-7.2,9.4-14.7,18.6-22,27.9
				c-0.3,0.3-0.5,0.7-0.9,1.5c0.7,0,1.3,0,1.8,0c0.3,0,0.5,0,0.7,0c3.6,0,7.2,0,10.8,0c3.3,0,6.5,0,9.8,0c0,0,0,0,0.1,0
				c1.3,0,1.9,0.4,1.7,1.8c-0.1,0.7,0,1.4,0,2.1c-0.1,1.6-1,2.5-2.5,2.5c-10.2,0-20.4,0-30.6,0c0,0,0,0,0,0c-1.4,0-1.7-1-1.5-1.9
				c0.3-1.4,0.8-3,1.6-4.1c3.1-4.2,6.3-8.3,9.7-12.2c4.4-5.1,8.3-10.7,12.7-15.9c0.2-0.3,0.4-0.6,0.7-1.1c-0.9,0-1.5-0.1-2.2-0.1
				c-3.4,0-6.8,0-10.2,0c-3.2,0-6.3,0-9.5,0c0,0-0.1,0-0.1,0c-1.4,0-2-0.4-1.9-1.9c0.1-1.1,0.1-2.3,0-3.5c-0.1-1.2,0.5-1.6,1.6-1.6
				c0,0,0,0,0,0c4.7,0,9.5,0,14.2,0C63.2,58.6,68.6,58.6,74.1,58.6C74,58.6,74,58.6,74.1,58.6 M74.1,58L74.1,58L74.1,58L74.1,58
				c-5.4,0-10.8,0-16.2,0c-4.7,0-9.5,0-14.2,0c-0.5,0-1.3,0.1-1.8,0.6c-0.3,0.4-0.5,0.9-0.5,1.6c0.1,1.2,0.1,2.3,0,3.4
				c-0.1,0.6-0.1,1.4,0.4,1.9c0.5,0.6,1.3,0.6,2,0.6l0.1,0c2.7,0,5.8,0,9.5,0c1.9,0,3.9,0,5.8,0l4.4,0c0.4,0,0.8,0,1.2,0
				c-0.1,0.1-0.1,0.2-0.2,0.3c-2.2,2.6-4.3,5.3-6.3,7.9c-2,2.7-4.2,5.4-6.4,8c-3,3.4-6,7.2-9.7,12.2c-0.9,1.2-1.3,2.8-1.7,4.3
				c-0.2,0.8-0.1,1.4,0.3,1.9c0.3,0.3,0.8,0.7,1.7,0.7c4.3,0,8.7,0,13,0c5.9,0,11.8,0,17.6,0c1.9,0,3-1.1,3.1-3c0-0.3,0-0.6,0-0.9
				c0-0.4,0-0.8,0-1.2c0.1-0.8,0-1.4-0.4-1.8c-0.5-0.5-1.3-0.6-1.9-0.6l-0.1,0c-2.9,0-5.9,0-9.8,0c-1.8,0-3.6,0-5.4,0
				c-1.8,0-3.6,0-5.3,0h-0.7h-0.8c0.1-0.2,0.2-0.4,0.3-0.5c2-2.5,3.9-4.9,5.9-7.4c5.3-6.7,10.8-13.6,16.1-20.5
				c0.9-1.2,1.3-2.7,1.7-4.2c0.1-0.4,0.2-0.7,0.3-1.1c0.2-0.7,0.1-1.2-0.2-1.6C75.6,58.2,74.9,58,74.1,58L74.1,58z"/>
		</g>
		<g>
			<path class="st0" d="M93.9,101.4c-5.5,0-10.2-3-13.8-8.8c-3.6-5.9-2.7-14,2.2-19.2c1.9-2,5.9-5.4,12.1-5.4c3.2,0,6.5,0.9,9.8,2.8
				c0-0.6,0.1-1,0.4-1.3c0.4-0.5,1.1-0.6,1.7-0.6c0.1,0,0.3,0,0.4,0c0.5,0,1,0,1.5,0c0.4,0,2.8,0,2.8,0l0.1,1c0,0.4,0.1,0.8,0.1,1.2
				c0,2.6,0,5.2,0,7.9c0,6.5,0,13.2,0,19.8c0,1-0.2,1.6-0.5,2c-0.4,0.4-1,0.6-2,0.6c0,0,0,0,0,0c-2.2,0-3.9-0.5-4.5-2.7
				C100.5,100.4,97,101.4,93.9,101.4z M94.5,74.8c-2.5,0-4.9,1-6.8,2.9c-1.9,1.9-2.9,4.4-2.9,7.1c0,5.3,4.1,9.5,9.4,9.7
				c0.2,0,0.3,0,0.5,0c2.5,0,4.9-1,6.7-2.8c1.9-1.9,2.9-4.4,2.9-7.1C104.3,78.9,100.2,74.8,94.5,74.8l0.1-0.3L94.5,74.8z"/>
			<path class="st0" d="M94.4,68.2c3.1,0,6.5,0.9,10.2,3.1c-0.3-1.9,0.6-2.1,1.7-2.1c0.1,0,0.3,0,0.4,0c0.5,0,1,0,1.5,0
				c0.8,0,1.6,0,2.5,0c0,0.7,0.1,1.3,0.1,1.8c0,9.2,0,18.4,0,27.6c0,1.7-0.4,2.3-2.2,2.3c0,0,0,0,0,0c-2.1,0-3.8-0.4-4.3-2.9
				c-3.7,2-7.3,3-10.6,3c-5.3,0-9.9-2.7-13.5-8.7c-3.7-6.1-2.4-14,2.2-18.9C85.2,70.6,89.4,68.2,94.4,68.2 M94.7,94.8
				c5.6,0,9.9-4.6,9.9-10.2c0-5.8-4.3-10.1-10.1-10.1c0,0,0,0-0.1,0c-5.5,0-9.9,4.6-9.9,10.3c0,5.7,4.5,9.8,9.7,10
				C94.4,94.8,94.5,94.8,94.7,94.8 M94.4,67.7l0,0.6L94.4,67.7c-6.3,0-10.4,3.4-12.3,5.5c-5,5.3-5.9,13.6-2.2,19.6
				c3.6,5.9,8.4,9,14,9c3.1,0,6.6-0.9,10.2-2.8c0.8,2.3,2.7,2.6,4.6,2.6c1.1,0,1.7-0.2,2.2-0.6c0.6-0.6,0.6-1.4,0.6-2.2
				c-0.1-6.6,0-13.3,0-19.7c0-2.6,0-5.3,0-7.9c0-0.4,0-0.8-0.1-1.2c0-0.2,0-0.4,0-0.7l0-0.5h-0.5c-0.4,0-0.9,0-1.3,0
				c-0.4,0-0.8,0-1.2,0c-0.5,0-1,0-1.5,0c-0.2,0-0.3,0-0.4,0c-0.6,0-1.5,0.1-2,0.7c-0.2,0.3-0.4,0.6-0.4,1
				C100.8,68.5,97.6,67.7,94.4,67.7L94.4,67.7z M94.7,94.2c-0.1,0-0.3,0-0.4,0c-5.2-0.2-9.1-4.3-9.1-9.4c0-2.6,1-5.1,2.8-6.9
				c1.8-1.8,4.1-2.8,6.6-2.8l0.1,0c5.5,0,9.5,4,9.5,9.5c0,2.6-1,5.1-2.8,6.9C99.5,93.3,97.2,94.2,94.7,94.2L94.7,94.2z"/>
		</g>
		<g>
			<path class="st0" d="M146,101.5c-4.4,0-8.7-1.9-11.9-5.3c-3.1-3.3-4.8-7.4-4.6-11.7c-0.2-4.1,1.5-8.4,4.7-11.6
				c3.3-3.4,7.7-5.3,12.2-5.3c9.1,0,16.7,7.8,16.7,16.9c0,9.4-7.4,16.8-16.9,16.9L146,101.5z M146.1,74.7c-5.2,0-9.6,4.2-9.8,9.5
				c-0.2,5.7,3.9,10.2,9.5,10.4c0.1,0,0.2,0,0.3,0c5.3,0,9.8-4.3,9.9-9.6c0.1-5.6-4.2-10.1-9.8-10.2L146.1,74.7z"/>
			<path class="st0" d="M146.3,67.9C146.3,67.9,146.3,67.9,146.3,67.9c8.9,0,16.5,7.6,16.4,16.7c0,9-7.2,16.6-16.6,16.6
				c0,0-0.1,0-0.1,0c-8.7,0-16.6-7.7-16.3-16.6C129.4,75.8,137.3,67.9,146.3,67.9 M146.2,94.8c5.5,0,10.1-4.5,10.2-9.9
				c0.1-5.7-4.3-10.4-10.1-10.5c-0.1,0-0.2,0-0.2,0c-5.3,0-9.9,4.4-10,9.7c-0.2,6,4.1,10.5,9.8,10.7C146,94.8,146.1,94.8,146.2,94.8
				 M146.3,67.3c-4.6,0-9.1,2-12.4,5.4c-3.2,3.3-4.9,7.6-4.7,11.8c-0.2,4.3,1.5,8.5,4.7,11.8c3.3,3.4,7.7,5.4,12.1,5.4l0.1,0
				c9.6-0.1,17.2-7.7,17.2-17.2C163.3,75.3,155.5,67.4,146.3,67.3L146.3,67.3L146.3,67.3z M146.2,94.3c-0.1,0-0.2,0-0.3,0
				c-5.5-0.2-9.4-4.5-9.3-10.1c0.2-5.1,4.4-9.2,9.5-9.2c0.1,0,0.2,0,0.2,0c5.5,0.1,9.6,4.5,9.5,9.9
				C155.7,90.1,151.4,94.3,146.2,94.3L146.2,94.3z"/>
		</g>
		<g>
			<path class="st0" d="M122.2,101.2c-5-0.1-5.2-0.3-5.2-5.3l0-8.5c0-8.9,0-18,0-27.1c0-1,0.2-1.6,0.5-2c0.3-0.3,0.8-0.5,1.4-0.5
				c0.2,0,0.3,0,0.5,0c0.5,0.1,1,0.1,1.5,0.1c0.5,0,1,0,1.5-0.1c0.1,0,0.3,0,0.4,0c0.5,0,0.9,0.1,1.2,0.4c0.3,0.3,0.5,0.9,0.5,1.7
				c0,4.8,0,9.7,0,14.5l0,5c0,1.8,0,3.6,0,5.3c0,4.6,0,9.3,0,14c0,0.9-0.1,1.4-0.5,1.8c-0.4,0.4-0.9,0.5-1.8,0.5L122.2,101.2z"/>
			<path class="st0" d="M118.9,58.2c0.2,0,0.3,0,0.5,0c0.5,0.1,1,0.1,1.5,0.1c0.5,0,1.1,0,1.6-0.1c0.1,0,0.3,0,0.4,0
				c1.1,0,1.4,0.6,1.4,1.8c0,6.5,0,13,0,19.5c0,6.4,0,12.9,0,19.3c0,1.6-0.5,2-2,2c0,0-0.1,0-0.1,0c-4.8-0.1-4.9-0.1-4.9-5
				c0-11.9,0-23.7,0-35.6C117.3,58.9,117.7,58.2,118.9,58.2 M118.9,57.6L118.9,57.6c-0.7,0-1.2,0.2-1.6,0.5
				c-0.6,0.6-0.6,1.4-0.6,2.2c0,9,0,18.2,0,27.1c0,2.8,0,5.6,0,8.5c0,5.2,0.3,5.5,5.4,5.5l0.1,0c0.6,0,1.4-0.1,2-0.6
				c0.4-0.4,0.6-1,0.6-2c-0.1-4.7-0.1-9.4,0-14c0-1.8,0-3.6,0-5.3l0-4.9c0-4.8,0-9.7,0-14.6c0-0.6-0.1-1.4-0.6-1.9
				c-0.3-0.3-0.8-0.5-1.4-0.5c-0.1,0-0.3,0-0.4,0c-0.5,0.1-1,0.1-1.5,0.1c-0.5,0-1,0-1.5-0.1C119.3,57.6,119.1,57.6,118.9,57.6
				L118.9,57.6z"/>
		</g>
	</g>
</g>
</svg>
